<svg xmlns="http://www.w3.org/2000/svg" xmlns:xlink="http://www.w3.org/1999/xlink" width="350" height="350" viewBox="0 0 350 350"><desc>Created with Fabric.js 1.7.22</desc><defs/><g id="icon" style="stroke:none;stroke-width:1;stroke-dasharray:none;stroke-linecap:butt;stroke-linejoin:miter;stroke-miterlimit:10;fill:none;fill-rule:nonzero;opacity:1" transform="translate(-1.9444444444444287 -1.9444444444444287) scale(3.89 3.89)" ><path d="M15.05 35.268c-.243.0-.491-.044-.73-.139-1.028-.404-1.534-1.565-1.131-2.593 3.723-9.479 11.395-16.759 21.049-19.974 1.046-.351 2.18.218 2.529 1.266.349 1.048-.218 2.181-1.266 2.529-8.526 2.839-15.302 9.269-18.589 17.641C16.603 34.786 15.849 35.268 15.05 35.268z" style="stroke:none;stroke-width:1;stroke-dasharray:none;stroke-linecap:butt;stroke-linejoin:miter;stroke-miterlimit:10;fill:#fece46;fill-rule:nonzero;opacity:1" transform="matrix(1 0 0 1 0 0)" stroke-linecap="round" /><path d="M45.059 79.272c-1.104.0-2-.896-2-2s.896-2 2-2c16.667.0 30.228-13.561 30.228-30.229.0-1.104.896-2 2-2s2 .896 2 2C79.287 63.918 63.933 79.272 45.059 79.272z" style="stroke:none;stroke-width:1;stroke-dasharray:none;stroke-linecap:butt;stroke-linejoin:miter;stroke-miterlimit:10;fill:#fece46;fill-rule:nonzero;opacity:1" transform="matrix(1 0 0 1 0 0)" stroke-linecap="round" /><path d="M45 90C20.187 90 0 69.813.0 45 0 20.187 20.187.0 45 0c6.984.0 13.681 1.557 19.9 4.628.99.489 1.396 1.688.907 2.679-.488.99-1.687 1.397-2.679.908C57.465 5.418 51.365 4 45 4 22.393 4 4 22.393 4 45s18.393 41 41 41 41-18.393 41-41c0-7.9-2.251-15.569-6.509-22.177-.599-.929-.331-2.167.598-2.765.929-.597 2.166-.331 2.765.598C87.528 27.912 90 36.33 90 45 90 69.813 69.813 90 45 90z" style="stroke:none;stroke-width:1;stroke-dasharray:none;stroke-linecap:butt;stroke-linejoin:miter;stroke-miterlimit:10;fill:#fece46;fill-rule:nonzero;opacity:1" transform="matrix(1 0 0 1 0 0)" stroke-linecap="round" /><path d="M79.113 10.97h-2.936V8.034c0-1.104-.896-2-2-2s-2 .896-2 2v2.936h-2.936c-1.104.0-2 .896-2 2s.896 2 2 2h2.936v2.936c0 1.104.896 2 2 2s2-.896 2-2V14.97h2.936c1.104.0 2-.896 2-2s-.894999999999996-2-2-2z" style="stroke:none;stroke-width:1;stroke-dasharray:none;stroke-linecap:butt;stroke-linejoin:miter;stroke-miterlimit:10;fill:#fece46;fill-rule:nonzero;opacity:1" transform="matrix(1 0 0 1 0 0)" stroke-linecap="round" /><path d="M56.354 50.673c-1.104.0-2 .896-2 2 0 2.152-1.751 3.903-3.903 3.903H39.549c-2.152.0-3.903-1.751-3.903-3.903V37.328c0-2.152 1.751-3.904 3.903-3.904h10.902c2.152.0 3.903 1.751 3.903 3.904.0 1.104.896 2 2 2s2-.896 2-2c0-4.358-3.546-7.904-7.903-7.904H47V25.5c0-1.104-.896-2-2-2s-2 .896-2 2v3.924h-3.451c-4.358.0-7.903 3.545-7.903 7.904v15.345c0 4.357 3.545 7.903 7.903 7.903H43V64.5c0 1.104.896 2 2 2s2-.896 2-2v-3.924h3.451c4.357.0 7.903-3.546 7.903-7.903C58.354 51.568 57.459 50.673 56.354 50.673z" style="stroke:none;stroke-width:1;stroke-dasharray:none;stroke-linecap:butt;stroke-linejoin:miter;stroke-miterlimit:10;fill:#0e3145;fill-rule:nonzero;opacity:1" transform="matrix(1 0 0 1 0 0)" stroke-linecap="round" /></g></svg>